<mxfile host="app.diagrams.net" modified="2024-05-02T21:00:06.539Z" agent="Mozilla/5.0 (X11; Linux x86_64) AppleWebKit/537.36 (KHTML, like Gecko) Chrome/124.0.0.0 Safari/537.36" etag="DxxkJOoQM5TgJJCJi1n9" version="24.3.1" type="device">
  <diagram name="Page-1" id="ijOW_-oBIccpZkMwN9oa">
    <mxGraphModel dx="818" dy="428" grid="1" gridSize="10" guides="1" tooltips="1" connect="1" arrows="1" fold="1" page="1" pageScale="1" pageWidth="850" pageHeight="1100" math="0" shadow="0">
      <root>
        <mxCell id="0" />
        <mxCell id="1" parent="0" />
        <mxCell id="t_KTTKx7ejsBQHktIE5J-1" value="&lt;font style=&quot;&quot; face=&quot;Times New Roman&quot;&gt;&lt;span style=&quot;font-style: italic; font-size: 30px;&quot;&gt;x&lt;/span&gt;&lt;sub style=&quot;&quot;&gt;&lt;font style=&quot;font-size: 20px;&quot;&gt;0&lt;/font&gt;&lt;/sub&gt;&lt;/font&gt;" style="ellipse;whiteSpace=wrap;html=1;aspect=fixed;" vertex="1" parent="1">
          <mxGeometry x="310" y="440" width="80" height="80" as="geometry" />
        </mxCell>
        <mxCell id="t_KTTKx7ejsBQHktIE5J-2" value="&lt;span style=&quot;font-family: &amp;quot;Times New Roman&amp;quot;;&quot;&gt;&lt;span style=&quot;font-style: italic; font-size: 30px;&quot;&gt;x&lt;/span&gt;&lt;sub style=&quot;&quot;&gt;&lt;font style=&quot;font-size: 20px;&quot;&gt;1&lt;/font&gt;&lt;/sub&gt;&lt;/span&gt;" style="ellipse;whiteSpace=wrap;html=1;aspect=fixed;" vertex="1" parent="1">
          <mxGeometry x="530" y="440" width="80" height="80" as="geometry" />
        </mxCell>
        <mxCell id="t_KTTKx7ejsBQHktIE5J-4" value="" style="curved=1;endArrow=classic;html=1;rounded=0;exitX=1;exitY=0;exitDx=0;exitDy=0;entryX=0;entryY=0;entryDx=0;entryDy=0;" edge="1" parent="1" source="t_KTTKx7ejsBQHktIE5J-1" target="t_KTTKx7ejsBQHktIE5J-2">
          <mxGeometry width="50" height="50" relative="1" as="geometry">
            <mxPoint x="410" y="490" as="sourcePoint" />
            <mxPoint x="460" y="440" as="targetPoint" />
            <Array as="points">
              <mxPoint x="410" y="430" />
              <mxPoint x="510" y="430" />
            </Array>
          </mxGeometry>
        </mxCell>
        <mxCell id="t_KTTKx7ejsBQHktIE5J-5" value="" style="curved=1;endArrow=classic;html=1;rounded=0;exitX=1;exitY=0;exitDx=0;exitDy=0;entryX=0;entryY=0;entryDx=0;entryDy=0;" edge="1" parent="1">
          <mxGeometry width="50" height="50" relative="1" as="geometry">
            <mxPoint x="542" y="510" as="sourcePoint" />
            <mxPoint x="378" y="510" as="targetPoint" />
            <Array as="points">
              <mxPoint x="510" y="532" />
              <mxPoint x="410" y="532" />
            </Array>
          </mxGeometry>
        </mxCell>
        <mxCell id="t_KTTKx7ejsBQHktIE5J-6" value="&lt;span style=&quot;font-family: &amp;quot;Times New Roman&amp;quot;;&quot;&gt;&lt;span style=&quot;font-style: italic; font-size: 30px;&quot;&gt;x&lt;/span&gt;&lt;sub style=&quot;&quot;&gt;&lt;font style=&quot;font-size: 20px;&quot;&gt;T-1&lt;/font&gt;&lt;/sub&gt;&lt;/span&gt;" style="ellipse;whiteSpace=wrap;html=1;aspect=fixed;" vertex="1" parent="1">
          <mxGeometry x="750" y="440" width="80" height="80" as="geometry" />
        </mxCell>
        <mxCell id="t_KTTKx7ejsBQHktIE5J-7" value="" style="curved=1;endArrow=classic;html=1;rounded=0;exitX=1;exitY=0;exitDx=0;exitDy=0;entryX=0;entryY=0;entryDx=0;entryDy=0;dashed=1;" edge="1" parent="1" target="t_KTTKx7ejsBQHktIE5J-6">
          <mxGeometry width="50" height="50" relative="1" as="geometry">
            <mxPoint x="598" y="452" as="sourcePoint" />
            <mxPoint x="680" y="440" as="targetPoint" />
            <Array as="points">
              <mxPoint x="630" y="430" />
              <mxPoint x="730" y="430" />
            </Array>
          </mxGeometry>
        </mxCell>
        <mxCell id="t_KTTKx7ejsBQHktIE5J-8" value="" style="curved=1;endArrow=classic;html=1;rounded=0;exitX=1;exitY=0;exitDx=0;exitDy=0;entryX=0;entryY=0;entryDx=0;entryDy=0;dashed=1;" edge="1" parent="1">
          <mxGeometry width="50" height="50" relative="1" as="geometry">
            <mxPoint x="762" y="510" as="sourcePoint" />
            <mxPoint x="598" y="510" as="targetPoint" />
            <Array as="points">
              <mxPoint x="730" y="532" />
              <mxPoint x="630" y="532" />
            </Array>
          </mxGeometry>
        </mxCell>
        <mxCell id="t_KTTKx7ejsBQHktIE5J-9" value="&lt;span style=&quot;font-family: &amp;quot;Times New Roman&amp;quot;;&quot;&gt;&lt;span style=&quot;font-style: italic; font-size: 30px;&quot;&gt;x&lt;/span&gt;&lt;sub style=&quot;&quot;&gt;&lt;font style=&quot;font-size: 20px;&quot;&gt;T&lt;/font&gt;&lt;/sub&gt;&lt;/span&gt;" style="ellipse;whiteSpace=wrap;html=1;aspect=fixed;" vertex="1" parent="1">
          <mxGeometry x="970" y="440" width="80" height="80" as="geometry" />
        </mxCell>
        <mxCell id="t_KTTKx7ejsBQHktIE5J-10" value="" style="curved=1;endArrow=classic;html=1;rounded=0;exitX=1;exitY=0;exitDx=0;exitDy=0;entryX=0;entryY=0;entryDx=0;entryDy=0;" edge="1" parent="1" target="t_KTTKx7ejsBQHktIE5J-9">
          <mxGeometry width="50" height="50" relative="1" as="geometry">
            <mxPoint x="818" y="452" as="sourcePoint" />
            <mxPoint x="900" y="440" as="targetPoint" />
            <Array as="points">
              <mxPoint x="850" y="430" />
              <mxPoint x="950" y="430" />
            </Array>
          </mxGeometry>
        </mxCell>
        <mxCell id="t_KTTKx7ejsBQHktIE5J-11" value="" style="curved=1;endArrow=classic;html=1;rounded=0;exitX=1;exitY=0;exitDx=0;exitDy=0;entryX=0;entryY=0;entryDx=0;entryDy=0;" edge="1" parent="1">
          <mxGeometry width="50" height="50" relative="1" as="geometry">
            <mxPoint x="982" y="510" as="sourcePoint" />
            <mxPoint x="818" y="510" as="targetPoint" />
            <Array as="points">
              <mxPoint x="950" y="532" />
              <mxPoint x="850" y="532" />
            </Array>
          </mxGeometry>
        </mxCell>
        <mxCell id="t_KTTKx7ejsBQHktIE5J-13" value="" style="shape=waypoint;sketch=0;fillStyle=solid;size=6;pointerEvents=1;points=[];fillColor=none;resizable=0;rotatable=0;perimeter=centerPerimeter;snapToPoint=1;strokeWidth=3;" vertex="1" parent="1">
          <mxGeometry x="645" y="470" width="20" height="20" as="geometry" />
        </mxCell>
        <mxCell id="t_KTTKx7ejsBQHktIE5J-14" value="" style="shape=waypoint;sketch=0;fillStyle=solid;size=6;pointerEvents=1;points=[];fillColor=none;resizable=0;rotatable=0;perimeter=centerPerimeter;snapToPoint=1;strokeWidth=3;" vertex="1" parent="1">
          <mxGeometry x="670" y="470" width="20" height="20" as="geometry" />
        </mxCell>
        <mxCell id="t_KTTKx7ejsBQHktIE5J-15" value="" style="shape=waypoint;sketch=0;fillStyle=solid;size=6;pointerEvents=1;points=[];fillColor=none;resizable=0;rotatable=0;perimeter=centerPerimeter;snapToPoint=1;strokeWidth=3;" vertex="1" parent="1">
          <mxGeometry x="694" y="470" width="20" height="20" as="geometry" />
        </mxCell>
        <mxCell id="t_KTTKx7ejsBQHktIE5J-18" value="&lt;font style=&quot;font-size: 16px;&quot; face=&quot;Times New Roman&quot;&gt;&lt;i&gt;q&lt;/i&gt;&lt;sub&gt;Φ&lt;/sub&gt;(&lt;i&gt;x&lt;/i&gt;&lt;sub&gt;1&amp;nbsp;&lt;/sub&gt;|&amp;nbsp;&lt;i&gt;x&lt;/i&gt;&lt;sub&gt;0&lt;/sub&gt;)&lt;/font&gt;" style="text;html=1;align=center;verticalAlign=middle;whiteSpace=wrap;rounded=0;" vertex="1" parent="1">
          <mxGeometry x="420" y="400" width="80" height="30" as="geometry" />
        </mxCell>
        <mxCell id="t_KTTKx7ejsBQHktIE5J-22" value="&lt;font style=&quot;font-size: 16px;&quot; face=&quot;Times New Roman&quot;&gt;&lt;i&gt;q&lt;/i&gt;&lt;sub&gt;Φ&lt;/sub&gt;(&lt;i&gt;x&lt;/i&gt;&lt;sub&gt;T&amp;nbsp;&lt;/sub&gt;|&amp;nbsp;&lt;i&gt;x&lt;/i&gt;&lt;sub&gt;T-1&lt;/sub&gt;)&lt;/font&gt;" style="text;html=1;align=center;verticalAlign=middle;whiteSpace=wrap;rounded=0;" vertex="1" parent="1">
          <mxGeometry x="855" y="400" width="90" height="30" as="geometry" />
        </mxCell>
        <mxCell id="t_KTTKx7ejsBQHktIE5J-23" value="&lt;font style=&quot;&quot; face=&quot;Times New Roman&quot;&gt;&lt;i style=&quot;font-size: 16px;&quot;&gt;p&lt;/i&gt;&lt;sub style=&quot;&quot;&gt;&lt;font style=&quot;font-size: 13.3333px;&quot;&gt;θ&lt;/font&gt;&lt;/sub&gt;&lt;span style=&quot;font-size: 16px;&quot;&gt;(&lt;/span&gt;&lt;span style=&quot;font-style: italic; font-size: 16px;&quot;&gt;x&lt;/span&gt;&lt;sub style=&quot;&quot;&gt;&lt;font style=&quot;font-size: 13.3333px;&quot;&gt;T-1&amp;nbsp;&lt;/font&gt;&lt;/sub&gt;&lt;/font&gt;&lt;span style=&quot;font-family: &amp;quot;Times New Roman&amp;quot;; font-size: 16px; font-style: italic;&quot;&gt;|&amp;nbsp;&lt;/span&gt;&lt;span style=&quot;font-family: &amp;quot;Times New Roman&amp;quot;; font-size: 16px;&quot;&gt;&lt;i&gt;x&lt;/i&gt;&lt;sub style=&quot;&quot;&gt;T&lt;/sub&gt;)&lt;/span&gt;" style="text;html=1;align=center;verticalAlign=middle;whiteSpace=wrap;rounded=0;" vertex="1" parent="1">
          <mxGeometry x="860" y="532" width="80" height="30" as="geometry" />
        </mxCell>
        <mxCell id="t_KTTKx7ejsBQHktIE5J-24" value="&lt;font style=&quot;&quot; face=&quot;Times New Roman&quot;&gt;&lt;i style=&quot;font-size: 16px;&quot;&gt;p&lt;/i&gt;&lt;sub style=&quot;&quot;&gt;&lt;font style=&quot;font-size: 13.3333px;&quot;&gt;θ&lt;/font&gt;&lt;/sub&gt;&lt;span style=&quot;font-size: 16px;&quot;&gt;(&lt;/span&gt;&lt;span style=&quot;font-size: 16px;&quot;&gt;&lt;i&gt;x&lt;/i&gt;&lt;sub style=&quot;&quot;&gt;0&lt;/sub&gt;&lt;/span&gt;&lt;sub style=&quot;&quot;&gt;&lt;font style=&quot;font-size: 13.3333px;&quot;&gt;&amp;nbsp;&lt;/font&gt;&lt;/sub&gt;&lt;/font&gt;&lt;span style=&quot;font-family: &amp;quot;Times New Roman&amp;quot;; font-size: 16px; font-style: italic;&quot;&gt;|&amp;nbsp;&lt;/span&gt;&lt;span style=&quot;font-family: &amp;quot;Times New Roman&amp;quot;;&quot;&gt;&lt;span style=&quot;font-style: italic; font-size: 16px;&quot;&gt;x&lt;/span&gt;&lt;span style=&quot;font-size: 13.3333px;&quot;&gt;&lt;sub style=&quot;&quot;&gt;1&lt;/sub&gt;&lt;/span&gt;&lt;span style=&quot;font-size: 16px;&quot;&gt;)&lt;/span&gt;&lt;/span&gt;" style="text;html=1;align=center;verticalAlign=middle;whiteSpace=wrap;rounded=0;" vertex="1" parent="1">
          <mxGeometry x="420" y="532" width="80" height="30" as="geometry" />
        </mxCell>
        <mxCell id="t_KTTKx7ejsBQHktIE5J-25" value="&lt;font face=&quot;Times New Roman&quot;&gt;&lt;span style=&quot;font-size: 16px;&quot;&gt;&lt;i&gt;x&lt;/i&gt;&lt;sub style=&quot;&quot;&gt;1&lt;/sub&gt;&lt;i&gt;, x&lt;/i&gt;&lt;sub style=&quot;&quot;&gt;2&lt;/sub&gt;&lt;i&gt;, ..., x&lt;/i&gt;&lt;sub style=&quot;&quot;&gt;T-1&lt;/sub&gt;&lt;/span&gt;&lt;/font&gt;" style="text;html=1;align=center;verticalAlign=middle;whiteSpace=wrap;rounded=0;" vertex="1" parent="1">
          <mxGeometry x="624" y="400" width="106" height="30" as="geometry" />
        </mxCell>
        <mxCell id="t_KTTKx7ejsBQHktIE5J-27" value="&lt;font face=&quot;Times New Roman&quot;&gt;&lt;span style=&quot;font-size: 16px;&quot;&gt;&lt;i&gt;x&lt;/i&gt;&lt;sub style=&quot;&quot;&gt;T-1&lt;/sub&gt;&lt;i&gt;, x&lt;/i&gt;&lt;sub style=&quot;&quot;&gt;T-2&lt;/sub&gt;&lt;i&gt;, ..., x&lt;/i&gt;&lt;sub style=&quot;&quot;&gt;1&lt;/sub&gt;&lt;/span&gt;&lt;/font&gt;" style="text;html=1;align=center;verticalAlign=middle;whiteSpace=wrap;rounded=0;" vertex="1" parent="1">
          <mxGeometry x="627" y="532" width="106" height="30" as="geometry" />
        </mxCell>
      </root>
    </mxGraphModel>
  </diagram>
</mxfile>
